sporting_grotesque_normal_greek.ufo
<glyph name="period" format="1">
  <advance width="310"/>
  <unicode hex="002E"/>
  <outline>
    <contour>
      <point x="90" y="0" type="line"/>
      <point x="220" y="0" type="line"/>
      <point x="220" y="145" type="line"/>
      <point x="90" y="145" type="line"/>
    </contour>
  </outline>
</glyph>
<glyph name="five" format="1">
  <advance width="800"/>
  <unicode hex="0035"/>
  <outline>
    <contour>
      <point x="740" y="255" type="curve"/>
      <point x="740" y="415"/>
      <point x="606" y="523"/>
      <point x="457" y="523" type="curve" smooth="yes"/>
      <point x="295" y="523"/>
      <point x="244" y="422"/>
      <point x="244" y="422" type="curve"/>
      <point x="291" y="692" type="line"/>
      <point x="704" y="692" type="line"/>
      <point x="704" y="777" type="line"/>
      <point x="180" y="777" type="line"/>
      <point x="109" y="376" type="line"/>
      <point x="242" y="376" type="line"/>
      <point x="242" y="376"/>
      <point x="288" y="424"/>
      <point x="406" y="424" type="curve"/>
      <point x="526" y="424"/>
      <point x="603" y="355"/>
      <point x="603" y="255" type="curve" smooth="yes"/>
      <point x="603" y="155"/>
      <point x="526" y="85"/>
      <point x="406" y="85" type="curve" smooth="yes"/>
      <point x="168" y="85"/>
      <point x="184" y="294"/>
      <point x="184" y="294" type="curve"/>
      <point x="50" y="255" type="line"/>
      <point x="50" y="255"/>
      <point x="60" y="-14"/>
      <point x="406" y="-14" type="curve"/>
      <point x="606" y="-14"/>
      <point x="740" y="85"/>
    </contour>
  </outline>
</glyph>
<glyph name="greater" format="1">
  <advance width="650"/>
  <unicode hex="003E"/>
  <outline>
    <contour>
      <point x="121" y="537" type="line"/>
      <point x="96" y="491" type="line"/>
      <point x="514" y="261" type="line"/>
      <point x="96" y="31" type="line"/>
      <point x="122" y="-14" type="line"/>
      <point x="575" y="235" type="line"/>
      <point x="575" y="235"/>
      <point x="575" y="287"/>
      <point x="575" y="287" type="curve"/>
    </contour>
    <contour>
      <point x="302" y="568" type="move" name="_top"/>
    </contour>
  </outline>
</glyph>
<glyph name="K" format="1">
  <advance width="862"/>
  <unicode hex="004B"/>
  <outline>
    <contour>
      <point x="220" y="777" type="line"/>
      <point x="90" y="777" type="line"/>
      <point x="90" y="0" type="line"/>
      <point x="220" y="0" type="line"/>
    </contour>
    <contour>
      <point x="90" y="290" type="line"/>
      <point x="220" y="280" type="line"/>
      <point x="782" y="777" type="line"/>
      <point x="622" y="777" type="line"/>
    </contour>
    <contour>
      <point x="692" y="0" type="line"/>
      <point x="842" y="0" type="line"/>
      <point x="423" y="477" type="line"/>
      <point x="338" y="403" type="line"/>
    </contour>
  </outline>
</glyph>
<glyph name="V" format="1">
  <advance width="914"/>
  <unicode hex="0056"/>
  <outline>
    <contour>
      <point x="894" y="777" type="line"/>
      <point x="755" y="777" type="line"/>
      <point x="457" y="85" type="line"/>
      <point x="159" y="777" type="line"/>
      <point x="20" y="777" type="line"/>
      <point x="365" y="0" type="line"/>
      <point x="549" y="0" type="line"/>
    </contour>
  </outline>
</glyph>
<glyph name="Y" format="1">
  <advance width="852"/>
  <unicode hex="0059"/>
  <outline>
    <contour>
      <point x="361" y="377" type="line"/>
      <point x="361" y="0" type="line"/>
      <point x="491" y="0" type="line"/>
      <point x="491" y="377" type="line"/>
      <point x="842" y="777" type="line"/>
      <point x="692" y="777" type="line"/>
      <point x="426" y="474" type="line"/>
      <point x="160" y="777" type="line"/>
      <point x="10" y="777" type="line"/>
    </contour>
    <contour>
      <point x="709" y="835" type="move" name="top"/>
    </contour>
  </outline>
</glyph>
<glyph name="e" format="1">
  <advance width="727"/>
  <unicode hex="0065"/>
  <outline>
    <contour>
      <point x="525" y="339" type="line"/>
      <point x="525" y="339"/>
      <point x="518" y="480"/>
      <point x="361" y="480" type="curve"/>
      <point x="249" y="480"/>
      <point x="188" y="396"/>
      <point x="188" y="278" type="curve" smooth="yes"/>
      <point x="188" y="148"/>
      <point x="270" y="75"/>
      <point x="383" y="75" type="curve" smooth="yes"/>
      <point x="543" y="75"/>
      <point x="543" y="221"/>
      <point x="543" y="221" type="curve"/>
      <point x="667" y="185" type="line"/>
      <point x="667" y="185"/>
      <point x="632" y="-14"/>
      <point x="368" y="-14" type="curve" smooth="yes"/>
      <point x="206" y="-14"/>
      <point x="60" y="90"/>
      <point x="60" y="278" type="curve" smooth="yes"/>
      <point x="60" y="444"/>
      <point x="172" y="569"/>
      <point x="368" y="569" type="curve"/>
      <point x="680" y="569"/>
      <point x="652" y="263"/>
      <point x="652" y="263" type="curve"/>
      <point x="183" y="273" type="line"/>
      <point x="183" y="273"/>
      <point x="183" y="334"/>
      <point x="183" y="334" type="curve"/>
    </contour>
    <contour>
      <point x="371" y="613" type="move" name="top"/>
    </contour>
  </outline>
</glyph>
<glyph name="v" format="1">
  <advance width="668"/>
  <unicode hex="0076"/>
  <outline>
    <contour>
      <point x="658" y="555" type="line"/>
      <point x="522" y="555" type="line"/>
      <point x="334" y="107" type="line"/>
      <point x="148" y="555" type="line"/>
      <point x="10" y="555" type="line"/>
      <point x="268" y="0" type="line"/>
      <point x="399" y="0" type="line"/>
    </contour>
  </outline>
</glyph>
<glyph name="yen" format="1">
  <advance width="800"/>
  <unicode hex="00A5"/>
  <outline>
    <contour>
      <point x="335" y="377" type="line"/>
      <point x="335" y="0" type="line"/>
      <point x="465" y="0" type="line"/>
      <point x="465" y="377" type="line"/>
      <point x="790" y="777" type="line"/>
      <point x="630" y="777" type="line"/>
      <point x="400" y="474" type="line"/>
      <point x="170" y="777" type="line"/>
      <point x="10" y="777" type="line"/>
    </contour>
    <contour>
      <point x="685" y="172" type="line"/>
      <point x="115" y="172" type="line"/>
      <point x="115" y="122" type="line"/>
      <point x="685" y="122" type="line"/>
    </contour>
    <contour>
      <point x="685" y="332" type="line"/>
      <point x="115" y="332" type="line"/>
      <point x="115" y="282" type="line"/>
      <point x="685" y="282" type="line"/>
    </contour>
  </outline>
</glyph>
<glyph name="dieresis" format="1">
  <advance width="358"/>
  <unicode hex="00A8"/>
  <outline>
    <contour>
      <point x="19" y="681" type="line"/>
      <point x="139" y="681" type="line"/>
      <point x="139" y="777" type="line"/>
      <point x="19" y="777" type="line"/>
    </contour>
    <contour>
      <point x="219" y="681" type="line"/>
      <point x="339" y="681" type="line"/>
      <point x="339" y="777" type="line"/>
      <point x="219" y="777" type="line"/>
    </contour>
    <contour>
      <point x="179" y="613" type="move" name="_top"/>
    </contour>
  </outline>
</glyph>
<glyph name="guillemotleft" format="1">
  <advance width="551"/>
  <unicode hex="00AB"/>
  <outline>
    <contour>
      <point x="30" y="277" type="line"/>
      <point x="211" y="58" type="line"/>
      <point x="301" y="58" type="line"/>
      <point x="150" y="277" type="line"/>
      <point x="301" y="496" type="line"/>
      <point x="211" y="496" type="line"/>
    </contour>
    <contour>
      <point x="250" y="277" type="line"/>
      <point x="431" y="58" type="line"/>
      <point x="521" y="58" type="line"/>
      <point x="370" y="277" type="line"/>
      <point x="521" y="496" type="line"/>
      <point x="431" y="496" type="line"/>
    </contour>
  </outline>
</glyph>
<glyph name="guillemotright" format="1">
  <advance width="551"/>
  <unicode hex="00BB"/>
  <outline>
    <contour>
      <point x="120" y="496" type="line"/>
      <point x="30" y="496" type="line"/>
      <point x="181" y="277" type="line"/>
      <point x="30" y="58" type="line"/>
      <point x="120" y="58" type="line"/>
      <point x="301" y="277" type="line"/>
    </contour>
    <contour>
      <point x="340" y="496" type="line"/>
      <point x="250" y="496" type="line"/>
      <point x="401" y="277" type="line"/>
      <point x="250" y="58" type="line"/>
      <point x="340" y="58" type="line"/>
      <point x="521" y="277" type="line"/>
    </contour>
  </outline>
</glyph>
<glyph name="circumflex" format="1">
  <advance width="1204"/>
  <unicode hex="02C6"/>
  <outline>
    <contour>
      <point x="556" y="821" type="line"/>
      <point x="380" y="633" type="line"/>
      <point x="447" y="633" type="line"/>
      <point x="601" y="739" type="line"/>
      <point x="755" y="633" type="line"/>
      <point x="822" y="633" type="line"/>
      <point x="646" y="821" type="line"/>
    </contour>
    <contour>
      <point x="601" y="613" type="move" name="_top"/>
    </contour>
  </outline>
</glyph>
<glyph name="Epsilon" format="1">
  <advance width="745"/>
  <unicode hex="0395"/>
  <outline>
    <contour>
      <point x="90" y="0" type="line"/>
      <point x="705" y="0" type="line"/>
      <point x="705" y="85" type="line"/>
      <point x="220" y="85" type="line"/>
      <point x="220" y="347" type="line"/>
      <point x="648" y="347" type="line"/>
      <point x="648" y="432" type="line"/>
      <point x="220" y="432" type="line"/>
      <point x="220" y="692" type="line"/>
      <point x="676" y="692" type="line"/>
      <point x="676" y="777" type="line"/>
      <point x="90" y="777" type="line"/>
    </contour>
  </outline>
</glyph>
<glyph name="Iota" format="1">
  <advance width="310"/>
  <unicode hex="0399"/>
  <outline>
    <contour>
      <point x="90" y="777" type="line"/>
      <point x="90" y="0" type="line"/>
      <point x="220" y="0" type="line"/>
      <point x="220" y="777" type="line"/>
    </contour>
  </outline>
</glyph>
<glyph name="Kappa" format="1">
  <advance width="862"/>
  <unicode hex="039A"/>
  <outline>
    <contour>
      <point x="220" y="777" type="line"/>
      <point x="90" y="777" type="line"/>
      <point x="90" y="0" type="line"/>
      <point x="220" y="0" type="line"/>
    </contour>
    <contour>
      <point x="90" y="290" type="line"/>
      <point x="220" y="280" type="line"/>
      <point x="782" y="777" type="line"/>
      <point x="622" y="777" type="line"/>
    </contour>
    <contour>
      <point x="692" y="0" type="line"/>
      <point x="842" y="0" type="line"/>
      <point x="423" y="477" type="line"/>
      <point x="338" y="403" type="line"/>
    </contour>
  </outline>
</glyph>
<glyph name="Lambda" format="1">
  <advance width="974"/>
  <unicode hex="039B"/>
  <outline>
    <contour>
      <point x="470" y="692" type="line"/>
      <point x="505" y="692" type="line"/>
      <point x="815" y="0" type="line"/>
      <point x="954" y="0" type="line"/>
      <point x="594" y="777" type="line"/>
      <point x="380" y="777" type="line"/>
      <point x="20" y="0" type="line"/>
      <point x="158" y="0" type="line"/>
    </contour>
  </outline>
</glyph>
<glyph name="Nu" format="1">
  <advance width="931"/>
  <unicode hex="039D"/>
  <outline>
    <contour>
      <point x="841" y="777" type="line"/>
      <point x="711" y="777" type="line"/>
      <point x="711" y="135" type="line"/>
      <point x="250" y="777" type="line"/>
      <point x="90" y="777" type="line"/>
      <point x="90" y="0" type="line"/>
      <point x="220" y="0" type="line"/>
      <point x="220" y="642" type="line"/>
      <point x="681" y="0" type="line"/>
      <point x="841" y="0" type="line"/>
    </contour>
  </outline>
</glyph>
<glyph name="Xi" format="1">
  <advance width="895"/>
  <unicode hex="039E"/>
  <outline>
    <contour>
      <point x="855" y="0" type="line"/>
      <point x="855" y="85" type="line"/>
      <point x="40" y="85" type="line"/>
      <point x="40" y="0" type="line"/>
    </contour>
    <contour>
      <point x="826" y="692" type="line"/>
      <point x="826" y="777" type="line"/>
      <point x="69" y="777" type="line"/>
      <point x="69" y="692" type="line"/>
    </contour>
    <contour>
      <point x="798" y="347" type="line"/>
      <point x="798" y="432" type="line"/>
      <point x="97" y="432" type="line"/>
      <point x="97" y="347" type="line"/>
    </contour>
    <contour>
      <point x="380" y="767" type="line"/>
      <point x="380" y="10" type="line"/>
      <point x="510" y="10" type="line"/>
      <point x="510" y="767" type="line"/>
    </contour>
  </outline>
</glyph>
<glyph name="Tau" format="1">
  <advance width="787"/>
  <unicode hex="03A4"/>
  <outline>
    <contour>
      <point x="0" y="692" type="line"/>
      <point x="330" y="692" type="line"/>
      <point x="330" y="0" type="line"/>
      <point x="457" y="0" type="line"/>
      <point x="457" y="692" type="line"/>
      <point x="787" y="692" type="line"/>
      <point x="787" y="777" type="line"/>
      <point x="0" y="777" type="line"/>
    </contour>
  </outline>
</glyph>
<glyph name="Phi" format="1">
  <advance width="1067"/>
  <unicode hex="03A6"/>
  <outline>
    <contour>
      <point x="1027" y="388" type="curve" smooth="yes"/>
      <point x="1027" y="622"/>
      <point x="809" y="721"/>
      <point x="533" y="721" type="curve" smooth="yes"/>
      <point x="257" y="721"/>
      <point x="40" y="622"/>
      <point x="40" y="388" type="curve" smooth="yes"/>
      <point x="40" y="155"/>
      <point x="257" y="56"/>
      <point x="533" y="56" type="curve" smooth="yes"/>
      <point x="809" y="56"/>
      <point x="1027" y="155"/>
    </contour>
    <contour>
      <point x="890" y="388" type="curve" smooth="yes"/>
      <point x="890" y="207"/>
      <point x="722" y="135"/>
      <point x="533" y="135" type="curve" smooth="yes"/>
      <point x="345" y="135"/>
      <point x="177" y="207"/>
      <point x="177" y="388" type="curve" smooth="yes"/>
      <point x="177" y="570"/>
      <point x="345" y="642"/>
      <point x="533" y="642" type="curve" smooth="yes"/>
      <point x="722" y="642"/>
      <point x="890" y="570"/>
    </contour>
    <contour>
      <point x="465" y="777" type="line"/>
      <point x="465" y="0" type="line"/>
      <point x="595" y="0" type="line"/>
      <point x="595" y="777" type="line"/>
    </contour>
  </outline>
</glyph>
<glyph name="Chi" format="1">
  <advance width="852"/>
  <unicode hex="03A7"/>
  <outline>
    <contour>
      <point x="692" y="0" type="line"/>
      <point x="842" y="0" type="line"/>
      <point x="160" y="777" type="line"/>
      <point x="10" y="777" type="line"/>
    </contour>
    <contour>
      <point x="10" y="0" type="line"/>
      <point x="160" y="0" type="line"/>
      <point x="842" y="777" type="line"/>
      <point x="692" y="777" type="line"/>
    </contour>
  </outline>
</glyph>
<glyph name="Psi" format="1">
  <advance width="1167"/>
  <unicode hex="03A8"/>
  <outline>
    <contour>
      <point x="940" y="508" type="line" smooth="yes"/>
      <point x="940" y="327"/>
      <point x="763" y="255"/>
      <point x="574" y="255" type="curve" smooth="yes"/>
      <point x="386" y="255"/>
      <point x="227" y="327"/>
      <point x="227" y="508" type="curve" smooth="yes"/>
      <point x="227" y="777" type="line"/>
      <point x="90" y="777" type="line"/>
      <point x="90" y="508" type="line" smooth="yes"/>
      <point x="90" y="275"/>
      <point x="288" y="176"/>
      <point x="574" y="176" type="curve" smooth="yes"/>
      <point x="850" y="176"/>
      <point x="1077" y="275"/>
      <point x="1077" y="508" type="curve" smooth="yes"/>
      <point x="1077" y="777" type="line"/>
      <point x="940" y="777" type="line"/>
    </contour>
    <contour>
      <point x="517" y="777" type="line"/>
      <point x="517" y="0" type="line"/>
      <point x="647" y="0" type="line"/>
      <point x="647" y="777" type="line"/>
    </contour>
  </outline>
</glyph>
<glyph name="uni03A9" format="1">
  <advance width="1027"/>
  <unicode hex="03A9"/>
  <outline>
    <contour>
      <point x="40" y="85" type="line"/>
      <point x="40" y="0" type="line"/>
      <point x="440" y="0" type="line"/>
      <point x="440" y="82" type="line"/>
      <point x="292" y="111"/>
      <point x="197" y="230"/>
      <point x="197" y="388" type="curve" smooth="yes"/>
      <point x="197" y="560"/>
      <point x="325" y="692"/>
      <point x="513" y="692" type="curve" smooth="yes"/>
      <point x="702" y="692"/>
      <point x="830" y="560"/>
      <point x="830" y="388" type="curve" smooth="yes"/>
      <point x="830" y="228"/>
      <point x="731" y="108"/>
      <point x="580" y="81" type="curve"/>
      <point x="580" y="0" type="line"/>
      <point x="987" y="0" type="line"/>
      <point x="987" y="85" type="line"/>
      <point x="696" y="85" type="line"/>
      <point x="866" y="137"/>
      <point x="967" y="273"/>
      <point x="967" y="418" type="curve" smooth="yes"/>
      <point x="967" y="612"/>
      <point x="789" y="791"/>
      <point x="513" y="791" type="curve" smooth="yes"/>
      <point x="237" y="791"/>
      <point x="60" y="612"/>
      <point x="60" y="418" type="curve" smooth="yes"/>
      <point x="60" y="273"/>
      <point x="137" y="137"/>
      <point x="307" y="85" type="curve"/>
    </contour>
  </outline>
</glyph>
<glyph name="alpha" format="1">
  <advance width="817"/>
  <unicode hex="03B1"/>
  <outline>
    <contour>
      <point x="635" y="264" type="line"/>
      <point x="585" y="110"/>
      <point x="640" y="94"/>
      <point x="672" y="94" type="curve" smooth="yes"/>
      <point x="721" y="94"/>
      <point x="753" y="144"/>
      <point x="753" y="144" type="curve"/>
      <point x="777" y="36" type="line"/>
      <point x="765" y="13"/>
      <point x="718" y="-14"/>
      <point x="667" y="-14" type="curve" smooth="yes"/>
      <point x="574" y="-14"/>
      <point x="512" y="82"/>
      <point x="575" y="247" type="curve"/>
    </contour>
    <contour>
      <point x="517" y="217" type="line"/>
      <point x="510" y="403"/>
      <point x="440" y="480"/>
      <point x="349" y="480" type="curve" smooth="yes"/>
      <point x="242" y="480"/>
      <point x="186" y="376"/>
      <point x="186" y="274" type="curve" smooth="yes"/>
      <point x="186" y="145"/>
      <point x="249" y="77"/>
      <point x="338" y="77" type="curve" smooth="yes"/>
      <point x="429" y="77"/>
      <point x="503" y="149"/>
      <point x="543" y="300" type="curve" smooth="yes"/>
      <point x="611" y="555" type="line"/>
      <point x="731" y="555" type="line"/>
      <point x="635" y="264" type="line"/>
      <point x="572" y="237" type="line"/>
      <point x="530" y="67"/>
      <point x="415" y="-14"/>
      <point x="312" y="-14" type="curve" smooth="yes"/>
      <point x="154" y="-14"/>
      <point x="60" y="117"/>
      <point x="60" y="270" type="curve" smooth="yes"/>
      <point x="60" y="418"/>
      <point x="149" y="569"/>
      <point x="315" y="569" type="curve" smooth="yes"/>
      <point x="469" y="569"/>
      <point x="567" y="416"/>
      <point x="534" y="215" type="curve"/>
    </contour>
  </outline>
</glyph>
<glyph name="gamma" format="1">
  <advance width="658"/>
  <unicode hex="03B3"/>
  <outline>
    <contour>
      <point x="254" y="-223" type="line"/>
      <point x="374" y="-223" type="line"/>
      <point x="374" y="52" type="line"/>
      <point x="254" y="52" type="line"/>
    </contour>
    <contour>
      <point x="529" y="555" type="line"/>
      <point x="488" y="383"/>
      <point x="414" y="219"/>
      <point x="334" y="107" type="curve"/>
      <point x="148" y="555" type="line"/>
      <point x="10" y="555" type="line"/>
      <point x="262" y="0" type="line"/>
      <point x="374" y="0" type="line"/>
      <point x="501" y="152"/>
      <point x="596" y="345"/>
      <point x="648" y="555" type="curve"/>
    </contour>
  </outline>
</glyph>
<glyph name="theta" format="1">
  <advance width="740"/>
  <unicode hex="03B8"/>
  <outline>
    <contour>
      <point x="680" y="389" type="curve" smooth="yes"/>
      <point x="680" y="622"/>
      <point x="577" y="791"/>
      <point x="370" y="791" type="curve" smooth="yes"/>
      <point x="163" y="791"/>
      <point x="60" y="622"/>
      <point x="60" y="389" type="curve" smooth="yes"/>
      <point x="60" y="155"/>
      <point x="163" y="-14"/>
      <point x="370" y="-14" type="curve" smooth="yes"/>
      <point x="577" y="-14"/>
      <point x="680" y="155"/>
    </contour>
    <contour>
      <point x="558" y="389" type="curve" smooth="yes"/>
      <point x="558" y="217"/>
      <point x="499" y="85"/>
      <point x="370" y="85" type="curve"/>
      <point x="241" y="85"/>
      <point x="182" y="217"/>
      <point x="182" y="389" type="curve" smooth="yes"/>
      <point x="182" y="560"/>
      <point x="241" y="692"/>
      <point x="370" y="692" type="curve" smooth="yes"/>
      <point x="499" y="692"/>
      <point x="558" y="560"/>
    </contour>
    <contour>
      <point x="160" y="352" type="line"/>
      <point x="578" y="352" type="line"/>
      <point x="578" y="427" type="line"/>
      <point x="160" y="427" type="line"/>
    </contour>
  </outline>
</glyph>
<glyph name="kappa" format="1">
  <advance width="654"/>
  <unicode hex="03BA"/>
  <outline>
    <contour>
      <point x="90" y="0" type="line"/>
      <point x="210" y="0" type="line"/>
      <point x="210" y="197" type="line"/>
      <point x="267" y="251" type="line"/>
      <point x="499" y="0" type="line"/>
      <point x="654" y="0" type="line"/>
      <point x="352" y="321" type="line"/>
      <point x="600" y="555" type="line"/>
      <point x="459" y="555" type="line"/>
      <point x="210" y="315" type="line"/>
      <point x="210" y="555" type="line"/>
      <point x="90" y="555" type="line"/>
    </contour>
  </outline>
</glyph>
<glyph name="pi" format="1">
  <advance width="822"/>
  <unicode hex="03C0"/>
  <outline>
    <contour>
      <point x="40" y="480" type="line"/>
      <point x="514" y="480" type="line"/>
      <point x="514" y="158" type="line" smooth="yes"/>
      <point x="514" y="25"/>
      <point x="580" y="-14"/>
      <point x="654" y="-14" type="curve" smooth="yes"/>
      <point x="706" y="-14"/>
      <point x="772" y="25"/>
      <point x="802" y="66" type="curve"/>
      <point x="778" y="155" type="line"/>
      <point x="754" y="115"/>
      <point x="718" y="85"/>
      <point x="688" y="85" type="curve" smooth="yes"/>
      <point x="658" y="85"/>
      <point x="634" y="116"/>
      <point x="634" y="201" type="curve" smooth="yes"/>
      <point x="634" y="480" type="line"/>
      <point x="762" y="480" type="line"/>
      <point x="762" y="555" type="line"/>
      <point x="40" y="555" type="line"/>
    </contour>
    <contour>
      <point x="136" y="0" type="line"/>
      <point x="264" y="0" type="line"/>
      <point x="304" y="535" type="line"/>
      <point x="200" y="535" type="line"/>
    </contour>
  </outline>
</glyph>
<glyph name="rho" format="1">
  <advance width="747"/>
  <unicode hex="03C1"/>
  <outline>
    <contour>
      <point x="90" y="-223" type="line"/>
      <point x="210" y="-223" type="line"/>
      <point x="210" y="124" type="line"/>
      <point x="245" y="40"/>
      <point x="338" y="-14"/>
      <point x="416" y="-14" type="curve" smooth="yes"/>
      <point x="551" y="-14"/>
      <point x="687" y="88"/>
      <point x="687" y="278" type="curve" smooth="yes"/>
      <point x="687" y="448"/>
      <point x="565" y="569"/>
      <point x="399" y="569" type="curve" smooth="yes"/>
      <point x="218" y="569"/>
      <point x="90" y="478"/>
      <point x="90" y="258" type="curve" smooth="yes"/>
    </contour>
    <contour>
      <point x="381" y="480" type="curve" smooth="yes"/>
      <point x="489" y="480"/>
      <point x="559" y="398"/>
      <point x="559" y="278" type="curve" smooth="yes"/>
      <point x="559" y="158"/>
      <point x="489" y="75"/>
      <point x="381" y="75" type="curve" smooth="yes"/>
      <point x="261" y="75"/>
      <point x="205" y="168"/>
      <point x="205" y="278" type="curve" smooth="yes"/>
      <point x="205" y="388"/>
      <point x="271" y="480"/>
    </contour>
  </outline>
</glyph>
<glyph name="phi" format="1">
  <advance width="877"/>
  <unicode hex="03C6"/>
  <outline>
    <contour>
      <point x="158" y="308" type="curve" smooth="yes"/>
      <point x="158" y="381"/>
      <point x="193" y="467"/>
      <point x="296" y="467" type="curve" smooth="yes"/>
      <point x="311" y="467"/>
      <point x="329" y="466"/>
      <point x="345" y="458" type="curve"/>
      <point x="315" y="561" type="line"/>
      <point x="301" y="563"/>
      <point x="288" y="564"/>
      <point x="275" y="564" type="curve" smooth="yes"/>
      <point x="113" y="564"/>
      <point x="30" y="424"/>
      <point x="30" y="288" type="curve" smooth="yes"/>
      <point x="30" y="115"/>
      <point x="195" y="-13"/>
      <point x="429" y="-13" type="curve" smooth="yes"/>
      <point x="640" y="-13"/>
      <point x="857" y="110"/>
      <point x="857" y="318" type="curve" smooth="yes"/>
      <point x="857" y="448"/>
      <point x="770" y="569"/>
      <point x="614" y="569" type="curve" smooth="yes"/>
      <point x="463" y="569"/>
      <point x="370" y="468"/>
      <point x="370" y="338" type="curve" smooth="yes"/>
      <point x="370" y="-223" type="line"/>
      <point x="490" y="-223" type="line"/>
      <point x="490" y="338" type="line" smooth="yes"/>
      <point x="490" y="428"/>
      <point x="526" y="490"/>
      <point x="606" y="490" type="curve" smooth="yes"/>
      <point x="694" y="490"/>
      <point x="729" y="428"/>
      <point x="729" y="318" type="curve" smooth="yes"/>
      <point x="729" y="170"/>
      <point x="635" y="67"/>
      <point x="429" y="67" type="curve" smooth="yes"/>
      <point x="245" y="67"/>
      <point x="158" y="170"/>
    </contour>
  </outline>
</glyph>
<glyph name="psi" format="1">
  <advance width="941"/>
  <unicode hex="03C8"/>
  <outline>
    <contour>
      <point x="764" y="308" type="curve" smooth="yes"/>
      <point x="764" y="156"/>
      <point x="669" y="75"/>
      <point x="485" y="75" type="curve" smooth="yes"/>
      <point x="309" y="75"/>
      <point x="218" y="158"/>
      <point x="218" y="327" type="curve" smooth="yes"/>
      <point x="218" y="555" type="line"/>
      <point x="90" y="555" type="line"/>
      <point x="90" y="328" type="line" smooth="yes"/>
      <point x="90" y="114"/>
      <point x="217" y="-14"/>
      <point x="485" y="-14" type="curve" smooth="yes"/>
      <point x="743" y="-14"/>
      <point x="881" y="114"/>
      <point x="881" y="308" type="curve" smooth="yes"/>
      <point x="881" y="390"/>
      <point x="868" y="463"/>
      <point x="849" y="555" type="curve"/>
      <point x="725" y="555" type="line"/>
      <point x="746" y="464"/>
      <point x="764" y="384"/>
    </contour>
    <contour>
      <point x="430" y="-223" type="line"/>
      <point x="550" y="-223" type="line"/>
      <point x="550" y="685" type="line"/>
      <point x="430" y="685" type="line"/>
    </contour>
  </outline>
</glyph>
<glyph name="J.smcp" format="1">
  <advance width="591"/>
  <outline>
    <contour>
      <point x="40" y="228" type="line"/>
      <point x="41" y="65"/>
      <point x="132" y="-14"/>
      <point x="271" y="-14" type="curve" smooth="yes"/>
      <point x="410" y="-14"/>
      <point x="501" y="64"/>
      <point x="501" y="221" type="curve"/>
      <point x="501" y="569" type="line"/>
      <point x="382" y="569" type="line"/>
      <point x="382" y="221" type="line"/>
      <point x="382" y="145"/>
      <point x="348" y="85"/>
      <point x="271" y="85" type="curve" smooth="yes"/>
      <point x="193" y="85"/>
      <point x="159" y="145"/>
      <point x="159" y="221" type="curve" smooth="yes"/>
      <point x="159" y="245"/>
      <point x="165" y="264"/>
      <point x="165" y="264" type="curve"/>
    </contour>
  </outline>
</glyph>
<glyph name="P.smcp" format="1">
  <advance width="598"/>
  <outline>
    <contour>
      <point x="90" y="569" type="line"/>
      <point x="333" y="569" type="line"/>
      <point x="509" y="569"/>
      <point x="588" y="515"/>
      <point x="588" y="407" type="curve" smooth="yes"/>
      <point x="588" y="299"/>
      <point x="509" y="247"/>
      <point x="333" y="247" type="curve"/>
      <point x="209" y="247" type="line"/>
      <point x="209" y="0" type="line"/>
      <point x="90" y="0" type="line"/>
    </contour>
    <contour>
      <point x="209" y="334" type="line"/>
      <point x="333" y="334" type="line"/>
      <point x="408" y="334"/>
      <point x="465" y="349"/>
      <point x="465" y="407" type="curve" smooth="yes"/>
      <point x="465" y="465"/>
      <point x="408" y="480"/>
      <point x="333" y="480" type="curve"/>
      <point x="209" y="480" type="line"/>
    </contour>
  </outline>
</glyph>
<glyph name="Pi.ss01" format="1">
  <advance width="930"/>
  <outline>
    <contour>
      <point x="710" y="0" type="line"/>
      <point x="840" y="0" type="line"/>
      <point x="840" y="777" type="line"/>
      <point x="90" y="777" type="line"/>
      <point x="90" y="0" type="line"/>
      <point x="220" y="0" type="line"/>
      <point x="220" y="692" type="line"/>
      <point x="710" y="692" type="line"/>
    </contour>
  </outline>
</glyph>
<glyph name="Q.smcp" format="1">
  <advance width="777"/>
  <outline>
    <contour>
      <point x="717" y="283" type="curve" smooth="yes"/>
      <point x="717" y="453"/>
      <point x="588" y="576"/>
      <point x="387" y="576" type="curve" smooth="yes"/>
      <point x="188" y="576"/>
      <point x="60" y="453"/>
      <point x="60" y="283" type="curve" smooth="yes"/>
      <point x="60" y="113"/>
      <point x="188" y="-9"/>
      <point x="387" y="-9" type="curve" smooth="yes"/>
      <point x="588" y="-9"/>
      <point x="717" y="113"/>
    </contour>
    <contour>
      <point x="593" y="283" type="curve" smooth="yes"/>
      <point x="593" y="172"/>
      <point x="510" y="87"/>
      <point x="387" y="87" type="curve" smooth="yes"/>
      <point x="266" y="87"/>
      <point x="183" y="172"/>
      <point x="183" y="283" type="curve" smooth="yes"/>
      <point x="183" y="394"/>
      <point x="266" y="479"/>
      <point x="387" y="479" type="curve" smooth="yes"/>
      <point x="510" y="479"/>
      <point x="593" y="394"/>
    </contour>
    <contour>
      <point x="661" y="0" type="line"/>
      <point x="661" y="0"/>
      <point x="623" y="-52"/>
      <point x="558" y="-52" type="curve"/>
      <point x="519" y="-52"/>
      <point x="499" y="-40"/>
      <point x="499" y="-10" type="curve" smooth="yes"/>
      <point x="499" y="4"/>
      <point x="514" y="9"/>
      <point x="514" y="9" type="curve"/>
      <point x="510" y="35" type="line"/>
      <point x="450" y="35" type="line"/>
      <point x="434" y="19"/>
      <point x="424" y="-6"/>
      <point x="424" y="-36" type="curve" smooth="yes"/>
      <point x="425" y="-88"/>
      <point x="459" y="-149"/>
      <point x="559" y="-149" type="curve" smooth="yes"/>
      <point x="656" y="-149"/>
      <point x="686" y="-94"/>
      <point x="686" y="-94" type="curve"/>
    </contour>
    <contour>
      <point x="398" y="625" type="move" name="top"/>
    </contour>
  </outline>
</glyph>
<glyph name="S.smcp" format="1">
  <advance width="658"/>
  <outline>
    <contour>
      <point x="291" y="358" type="line" smooth="yes"/>
      <point x="245" y="368"/>
      <point x="208" y="386"/>
      <point x="208" y="416" type="curve" smooth="yes"/>
      <point x="208" y="453"/>
      <point x="249" y="480"/>
      <point x="313" y="480" type="curve" smooth="yes"/>
      <point x="458" y="480"/>
      <point x="449" y="358"/>
      <point x="449" y="358" type="curve"/>
      <point x="572" y="390" type="line"/>
      <point x="572" y="390"/>
      <point x="566" y="579"/>
      <point x="317" y="579" type="curve" smooth="yes"/>
      <point x="157" y="579"/>
      <point x="86" y="496"/>
      <point x="86" y="408" type="curve" smooth="yes"/>
      <point x="86" y="337"/>
      <point x="135" y="279"/>
      <point x="234" y="256" type="curve" smooth="yes"/>
      <point x="365" y="226" type="line" smooth="yes"/>
      <point x="437" y="209"/>
      <point x="475" y="195"/>
      <point x="475" y="154" type="curve" smooth="yes"/>
      <point x="475" y="118"/>
      <point x="430" y="85"/>
      <point x="351" y="85" type="curve" smooth="yes"/>
      <point x="167" y="85"/>
      <point x="185" y="242"/>
      <point x="185" y="242" type="curve"/>
      <point x="60" y="207" type="line"/>
      <point x="65" y="124"/>
      <point x="133" y="-14"/>
      <point x="353" y="-14" type="curve" smooth="yes"/>
      <point x="491" y="-14"/>
      <point x="598" y="47"/>
      <point x="598" y="158" type="curve" smooth="yes"/>
      <point x="598" y="235"/>
      <point x="554" y="299"/>
      <point x="429" y="327" type="curve" smooth="yes"/>
    </contour>
  </outline>
</glyph>
<glyph name="T.smcp" format="1">
  <advance width="594"/>
  <outline>
    <contour>
      <point x="10" y="480" type="line"/>
      <point x="239" y="480" type="line"/>
      <point x="239" y="0" type="line"/>
      <point x="355" y="0" type="line"/>
      <point x="355" y="480" type="line"/>
      <point x="584" y="480" type="line"/>
      <point x="584" y="569" type="line"/>
      <point x="10" y="569" type="line"/>
    </contour>
  </outline>
</glyph>
<glyph name="X.smcp" format="1">
  <advance width="660"/>
  <outline>
    <contour>
      <point x="507" y="0" type="line"/>
      <point x="650" y="0" type="line"/>
      <point x="153" y="569" type="line"/>
      <point x="10" y="569" type="line"/>
    </contour>
    <contour>
      <point x="10" y="0" type="line"/>
      <point x="153" y="0" type="line"/>
      <point x="650" y="569" type="line"/>
      <point x="507" y="569" type="line"/>
    </contour>
  </outline>
</glyph>
<glyph name="Y.smcp" format="1">
  <advance width="660"/>
  <outline>
    <contour>
      <point x="271" y="270" type="line"/>
      <point x="271" y="0" type="line"/>
      <point x="389" y="0" type="line"/>
      <point x="389" y="270" type="line"/>
      <point x="650" y="569" type="line"/>
      <point x="507" y="569" type="line"/>
      <point x="330" y="353" type="line"/>
      <point x="153" y="569" type="line"/>
      <point x="10" y="569" type="line"/>
    </contour>
    <contour>
      <point x="545" y="625" type="move" name="top"/>
    </contour>
  </outline>
</glyph>
<glyph name="Z.smcp" format="1">
  <advance width="555"/>
  <outline>
    <contour>
      <point x="535" y="85" type="line"/>
      <point x="180" y="85" type="line"/>
      <point x="535" y="481" type="line"/>
      <point x="535" y="569" type="line"/>
      <point x="20" y="569" type="line"/>
      <point x="20" y="480" type="line"/>
      <point x="375" y="480" type="line"/>
      <point x="20" y="85" type="line"/>
      <point x="20" y="0" type="line"/>
      <point x="535" y="0" type="line"/>
    </contour>
  </outline>
</glyph>
<glyph name="four.susp_prop" format="1">
  <advance width="800"/>
  <outline>
    <contour>
      <point x="40" y="0" type="line"/>
      <point x="504" y="0" type="line"/>
      <point x="504" y="-222" type="line"/>
      <point x="624" y="-222" type="line"/>
      <point x="624" y="0" type="line"/>
      <point x="790" y="0" type="line"/>
      <point x="790" y="75" type="line"/>
      <point x="624" y="75" type="line"/>
      <point x="624" y="555" type="line"/>
      <point x="462" y="555" type="line"/>
      <point x="40" y="115" type="line"/>
    </contour>
    <contour>
      <point x="504" y="460" type="line"/>
      <point x="504" y="75" type="line"/>
      <point x="141" y="75" type="line"/>
    </contour>
  </outline>
</glyph>
